HIERARCHY
ROOT Root
{
  OFFSET 3.9167 11.8871 -1.57486
  CHANNELS 6 Xposition Yposition Zposition Zrotation Xrotation Yrotation
  JOINT Spine
  {
    OFFSET 5.3114 0 0
    CHANNELS 3 Zrotation Xrotation Yrotation
    JOINT Spine1
    {
      OFFSET 2.79004 0 0
      CHANNELS 3 Zrotation Xrotation Yrotation
      JOINT Neck
      {
        OFFSET 1.43377 0 0
        CHANNELS 3 Zrotation Xrotation Yrotation
        JOINT Head
        {
          OFFSET 1.86043 0 0
          CHANNELS 3 Zrotation Xrotation Yrotation
          End Site
          {
            OFFSET 0 0 0
          }
        }
      }
      JOINT LeftArm
      {
        OFFSET 0.0387506 0 2.55754
        CHANNELS 3 Zrotation Xrotation Yrotation
        JOINT LeftForeArm
        {
          OFFSET 4.24845 0 0
          CHANNELS 3 Zrotation Xrotation Yrotation
          JOINT LeftHand
          {
            OFFSET 4.01008 0 0
            CHANNELS 3 Zrotation Xrotation Yrotation
            End Site
            {
              OFFSET 0 0 0
            }
          }
        }
      }
      JOINT RightArm
      {
        OFFSET 0.0387506 0 -2.55754
        CHANNELS 3 Zrotation Xrotation Yrotation
        JOINT RightForeArm
        {
          OFFSET -4.24845 0 0
          CHANNELS 3 Zrotation Xrotation Yrotation
          JOINT RightHand
          {
            OFFSET -4.01009 0 0
            CHANNELS 3 Zrotation Xrotation Yrotation
            End Site
            {
              OFFSET 0 0 0
            }
          }
        }
      }
    }
  }
  JOINT LeftUpLeg
  {
    OFFSET -1.23318 0 2.05692
    CHANNELS 3 Zrotation Xrotation Yrotation
    JOINT LeftLeg
    {
      OFFSET 5.46397 0 0
      CHANNELS 3 Zrotation Xrotation Yrotation
      JOINT LeftFoot
      {
        OFFSET 4.68898 0 0
        CHANNELS 3 Zrotation Xrotation Yrotation
        End Site
        {
          OFFSET 0 0 0
        }
      }
    }
  }
  JOINT RightUpLeg
  {
    OFFSET -1.24454 0 -2.05007
    CHANNELS 3 Zrotation Xrotation Yrotation
    JOINT RightLeg
    {
      OFFSET -5.46397 0 0
      CHANNELS 3 Zrotation Xrotation Yrotation
      JOINT RightFoot
      {
        OFFSET -4.68901 0 0
        CHANNELS 3 Zrotation Xrotation Yrotation
        End Site
        {
          OFFSET 0 0 0
        }
      }
    }
  }
}
MOTION
Frames:	17
Frame Time:	0.00833333
3.9167 11.8871 -1.57486 -0 90 90 9.69808e-018 1.34041e-020 0.158382 1.41245e-030 7.06225e-031 2.48481e-017 -7.30747e-017 7.61111e-019 -1.19349 3.40995e-017 1.65719e-019 0.556895 -2.12238e-008 -1.53545e-005 -90.1584 -2.50273e-005 -2.47192e-012 6.55612e-006 1.52588e-005 -6.98387e-015 174.455 180 -4.60993e-005 -89.8417 -5.49628e-005 -2.25992e-011 3.612e-005 1.52588e-005 6.98387e-015 174.455 -3.94633 -0.248689 -175.995 -8.56197 0.175946 -0.87008 4.60964 -0.0775208 176.868 177.97 -0.126269 -176.037 -4.40371 0.0842352 -0.877237 2.37029 -0.0334797 176.598 
3.88083 11.8934 -1.72231 92.8218 64.0723 -0.679 -1.09532 -0.302404 0.96467 0.717228 -0.0704003 0.644659 -4.29504 0.541593 -0.959223 8.90287 0.657457 -1.18658 8.71295 -3.52724 -112.328 8.39346 0.575061 4.76669 -0.387738 -4.42101 174.444 -178.678 -0.022452 -110.92 8.48369 0.593759 4.81438 0.621862 7.06301 174.427 -6.58193 -0.668133 -176.364 -17.0672 -0.184778 -1.02181 11.611 -1.07444 177.538 173.014 -1.98581 -178.463 -11.5377 -0.147756 -0.98178 -0.473545 3.05069 177.054 
3.84412 11.9004 -1.8771 95.0113 36.6348 -0.766463 -2.25072 -0.621649 1.81079 1.47649 -0.144767 1.32374 -8.83457 1.1192 -0.712408 18.3428 1.36253 -3.02828 13.7348 -13.5615 -134.714 17.1706 1.17142 9.81138 -0.80503 -9.1241 174.396 -177.29 -0.11406 -133.157 17.3933 1.21763 9.93217 1.29536 14.4908 174.304 -9.33177 -1.12008 -176.754 -25.972 -0.565522 -1.18022 19.0698 -2.13183 178.249 167.598 -3.96191 178.965 -19.0601 -0.392515 -1.09178 -3.55678 6.29842 177.532 
3.80911 11.9061 -2.01722 96.8263 12.2203 -0.911284 -3.26042 -0.906422 2.57753 2.15644 -0.211094 1.93399 -12.8984 1.62495 -0.490762 26.8285 1.96623 -4.67605 11.9427 -25.3672 -154.892 24.8966 1.67752 14.3056 -1.18136 -13.2623 174.321 -176.142 -0.197938 -153.077 25.1552 1.73108 14.449 1.9424 21.1859 174.1 -11.8693 -1.50791 -177.102 -34.0835 -0.906113 -1.32543 25.6835 -3.07043 178.876 162.63 -5.69686 176.666 -25.8082 -0.61169 -1.19093 -6.30766 9.22544 177.953 
3.77837 11.9084 -2.12069 97.9689 -4.63979 -1.06325 -3.92351 -1.10572 3.14552 2.63476 -0.257425 2.37213 -15.7634 1.95094 -0.332055 32.8409 2.32286 -5.83634 5.89125 -33.507 -170.617 30.1952 2.00389 17.4183 -1.43649 -15.989 174.253 -175.427 -0.151804 -167.203 30.2657 2.01944 17.4574 2.45124 26.052 173.888 -13.8642 -1.73486 -177.342 -40.2079 -1.1464 -1.43753 30.1342 -3.71096 179.291 159.121 -6.84478 175.071 -30.6184 -0.766942 -1.2629 -8.12513 11.3468 178.24 
3.75383 11.906 -2.17263 98.3473 -10.9055 -1.0974 -4.10533 -1.20399 3.43921 2.82896 -0.281055 2.56676 -16.9512 2.02663 -0.252633 35.3463 2.33656 -6.3373 2.1776 -36.6323 -177.414 32.1865 2.1112 18.5964 -1.50683 -16.7271 174.232 -175.245 0.0988623 -173.239 31.7266 2.01953 18.3351 2.71374 28.413 173.763 -15.0913 -1.74376 -177.44 -43.5403 -1.24618 -1.50249 31.5193 -3.90953 179.397 157.801 -7.18029 174.485 -32.7311 -0.833086 -1.29724 -8.56961 12.3456 178.335 
3.73371 11.9001 -2.18776 98.2297 -9.60555 -1.00146 -3.94549 -1.22937 3.5367 2.81987 -0.288241 2.58756 -16.9398 1.92346 -0.230296 35.3395 2.10661 -6.36582 2.57291 -36.9554 -176.545 31.8336 2.07064 18.3917 -1.442 -16.0455 174.25 -175.453 0.485668 -173.495 30.5944 1.82046 17.691 2.77861 28.9832 173.732 -15.7692 -1.59655 -177.436 -44.8784 -1.24562 -1.53379 30.711 -3.79362 179.282 158.076 -6.94092 174.625 -32.9159 -0.835571 -1.30467 -8.02314 12.542 178.293 
3.71501 11.8931 -2.18852 97.896 -5.3131 -0.861427 -3.65556 -1.1966 3.54916 2.73005 -0.280495 2.54294 -16.4401 1.74658 -0.245025 34.3389 1.7816 -6.16566 4.70957 -36.0558 -172.574 30.5332 1.96878 17.629 -1.3262 -14.8171 174.282 -175.843 0.891654 -171.405 28.4595 1.54925 16.4633 2.75177 28.7527 173.748 -16.2321 -1.37502 -177.379 -45.4319 -1.20514 -1.55275 29.0508 -3.59117 179.098 158.993 -6.48304 175.042 -32.3039 -0.812001 -1.30065 -7.11238 12.4069 178.198 
3.69473 11.8875 -2.19735 97.6528 -2.60168 -0.757733 -3.44648 -1.12035 3.58773 2.68215 -0.25932 2.5413 -16.1636 1.60114 -0.276797 33.8609 1.51027 -5.9803 5.87323 -35.4943 -170.267 29.6832 1.89253 17.1333 -1.24198 -13.9146 174.303 -176.123 1.21093 -170.402 26.9278 1.33901 15.5887 2.74675 28.7112 173.752 -16.8142 -1.16099 -177.319 -46.4108 -1.18515 -1.58068 27.8777 -3.53016 178.994 159.602 -6.16371 175.291 -32.0262 -0.799983 -1.30063 -6.46516 12.4112 178.139 
3.67256 11.8835 -2.21829 97.5676 -2.24861 -0.692913 -3.35296 -0.981035 3.6618 2.69742 -0.218586 2.60665 -16.2213 1.50095 -0.330808 34.1453 1.31387 -5.8302 5.75131 -35.6215 -170.329 29.5045 1.85453 17.0336 -1.19851 -13.4486 174.314 -176.203 1.44123 -171.057 26.2828 1.21835 15.2258 2.77819 28.9858 173.736 -17.5746 -0.960155 -177.262 -48.0479 -1.19527 -1.62214 27.3763 -3.65698 178.995 159.746 -6.06113 175.293 -32.2757 -0.8057 -1.3073 -6.19296 12.6371 178.13 
3.64992 11.8801 -2.24003 97.4801 -1.96206 -0.63153 -3.26991 -0.778672 3.71887 2.71414 -0.159674 2.68281 -16.2603 1.39467 -0.414219 34.44 1.119 -5.60038 5.57484 -35.5926 -170.456 29.3016 1.81162 16.9203 -1.15611 -12.9943 174.324 -176.248 1.62888 -171.654 25.7169 1.11874 14.9052 2.79075 29.0942 173.73 -18.3456 -0.734283 -177.184 -49.7277 -1.20546 -1.66615 26.89 -3.85486 179.026 159.898 -5.99035 175.274 -32.4853 -0.810376 -1.31289 -5.98005 12.848 178.126 
3.62648 11.8772 -2.26191 97.3947 -1.71254 -0.581803 -3.1988 -0.557374 3.77728 2.73057 -0.0953484 2.75787 -16.2957 1.28974 -0.509955 34.7678 0.9331 -5.3307 5.39037 -35.4696 -170.618 29.1038 1.76996 16.8099 -1.12168 -12.6216 174.332 -176.276 1.75472 -172.198 25.2174 1.03446 14.6212 2.79287 29.1125 173.729 -19.1202 -0.499227 -177.09 -51.3883 -1.2166 -1.71068 26.4945 -4.10703 179.087 160.07 -5.91589 175.242 -32.6463 -0.814182 -1.3172 -5.81156 13.0362 178.128 
3.60187 11.8751 -2.2833 97.3159 -1.47054 -0.551964 -3.14117 -0.361252 3.85531 2.74503 -0.0383702 2.81988 -16.3424 1.19358 -0.600946 35.1509 0.76371 -5.061 5.24392 -35.3148 -170.788 28.9407 1.73573 16.7189 -1.10202 -12.4004 174.336 -176.305 1.79961 -172.697 24.7715 0.959686 14.3679 2.7931 29.1169 173.729 -19.891 -0.270835 -176.988 -52.9677 -1.22958 -1.75372 26.2657 -4.39676 179.175 160.274 -5.80218 175.203 -32.7495 -0.817286 -1.32001 -5.6726 13.1939 178.136 
3.57611 11.874 -2.30405 97.2419 -1.23506 -0.55293 -3.09472 -0.196316 3.96929 2.75623 0.00946982 2.86786 -16.4029 1.10619 -0.691498 35.598 0.60988 -4.78806 5.13909 -35.1208 -170.972 28.8215 1.71092 16.6523 -1.10217 -12.3829 174.336 -176.339 1.75449 -173.144 24.3772 0.894377 14.1441 2.78721 29.0722 173.733 -20.6559 -0.0474497 -176.864 -54.4823 -1.24551 -1.79594 26.2706 -4.74618 179.305 160.527 -5.61376 175.161 -32.7768 -0.819321 -1.32082 -5.5975 13.3089 178.156 
3.54934 11.8737 -2.3245 97.1718 -1.01954 -0.577384 -3.05976 -0.0409744 4.10565 2.76538 0.0544423 2.90743 -16.4698 1.02427 -0.787763 36.0962 0.468594 -4.49521 5.05588 -34.8621 -171.181 28.73 1.69216 16.6011 -1.11735 -12.5206 174.332 -176.374 1.63051 -173.54 24.0414 0.841279 13.9528 2.77286 28.9561 173.742 -21.4192 0.177395 -176.719 -55.9543 -1.2636 -1.83802 26.4548 -5.15533 179.472 160.817 -5.37826 175.11 -32.738 -0.820334 -1.31989 -5.58151 13.3886 178.186 
3.52145 11.8738 -2.34469 97.1115 -0.816172 -0.606216 -3.04153 0.102076 4.23778 2.77473 0.0958833 2.93662 -16.5427 0.950316 -0.875445 36.6348 0.344362 -4.20214 5.00337 -34.5741 -171.387 28.658 1.67757 16.5608 -1.13965 -12.7325 174.327 -176.41 1.43882 -173.896 23.7641 0.798721 13.7944 2.76134 28.8648 173.749 -22.1829 0.395096 -176.582 -57.3301 -1.28201 -1.87793 26.7112 -5.57436 179.652 161.118 -5.15482 175.05 -32.6671 -0.821118 -1.31817 -5.55101 13.4551 178.212 
3.49233 11.8737 -2.36467 97.0667 -0.617124 -0.620323 -3.04497 0.230161 4.33909 2.78652 0.133129 2.95343 -16.6213 0.886811 -0.940246 37.2028 0.241716 -3.92851 4.9894 -34.2926 -171.563 28.5975 1.66527 16.5269 -1.16114 -12.9376 174.322 -176.45 1.19063 -174.224 23.5454 0.765018 13.6697 2.76393 28.8942 173.749 -22.9488 0.597078 -176.481 -58.5562 -1.29885 -1.91366 26.9312 -5.95342 179.818 161.402 -5.00249 174.98 -32.5978 -0.822461 -1.3166 -5.43236 13.5305 178.22 
